<svg xmlns="http://www.w3.org/2000/svg" xmlns:xlink="http://www.w3.org/1999/xlink" viewBox="0 0 134.13 134.13"><defs><style>.cls-1{fill:url(#linear-gradient);}.cls-2{fill:url(#linear-gradient-2);}.cls-3{fill:url(#linear-gradient-3);}.cls-4{fill:url(#linear-gradient-4);}.cls-5{fill:url(#linear-gradient-5);}.cls-6{fill:url(#linear-gradient-6);}.cls-7{fill:url(#linear-gradient-7);}.cls-8{fill:url(#linear-gradient-8);}.cls-9{fill:url(#linear-gradient-9);}.cls-10{fill:url(#linear-gradient-10);}.cls-11{fill:url(#linear-gradient-11);}.cls-12{fill:url(#linear-gradient-12);}.cls-13{fill:url(#linear-gradient-13);}.cls-14{fill:url(#linear-gradient-14);}.cls-15{fill:url(#linear-gradient-15);}.cls-16{fill:url(#linear-gradient-16);}.cls-17{fill:url(#linear-gradient-17);}.cls-18{fill:url(#linear-gradient-18);}.cls-19{fill:url(#linear-gradient-19);}.cls-20{fill:url(#linear-gradient-20);}.cls-21{fill:url(#linear-gradient-21);}.cls-22{fill:url(#linear-gradient-22);}</style><linearGradient id="linear-gradient" x1="8.89" y1="143.21" x2="117.77" y2="34.32" gradientTransform="matrix(0.71, 0.7, -0.7, 0.71, 93.36, -40.69)" gradientUnits="userSpaceOnUse"><stop offset="0" stop-color="#f6ce69"/><stop offset="0.2" stop-color="#d99a26"/><stop offset="0.25" stop-color="#c68b23"/><stop offset="0.32" stop-color="#b57c20"/><stop offset="0.39" stop-color="#aa741f"/><stop offset="0.47" stop-color="#a7711e"/><stop offset="0.52" stop-color="#b0781f"/><stop offset="0.6" stop-color="#c78b23"/><stop offset="0.65" stop-color="#d99a26"/><stop offset="0.68" stop-color="#dea732"/><stop offset="0.76" stop-color="#f0d258"/><stop offset="0.82" stop-color="#fbed6f"/><stop offset="0.86" stop-color="#fff778"/><stop offset="0.88" stop-color="#fdf274"/><stop offset="0.91" stop-color="#f8e368"/><stop offset="0.94" stop-color="#efca53"/><stop offset="0.98" stop-color="#e3a837"/><stop offset="1" stop-color="#db9125"/></linearGradient><linearGradient id="linear-gradient-2" x1="292.42" y1="1.32" x2="411.42" y2="1.32" gradientTransform="translate(-278.45 0.12) rotate(10.75)" gradientUnits="userSpaceOnUse"><stop offset="0" stop-color="#ba8e1f"/><stop offset="0.2" stop-color="#9a5500"/><stop offset="0.26" stop-color="#824200"/><stop offset="0.33" stop-color="#713300"/><stop offset="0.39" stop-color="#662b00"/><stop offset="0.47" stop-color="#632800"/><stop offset="0.52" stop-color="#6c2f00"/><stop offset="0.6" stop-color="#834200"/><stop offset="0.65" stop-color="#9a5500"/><stop offset="0.69" stop-color="#a36b0a"/><stop offset="0.76" stop-color="#b5961e"/><stop offset="0.82" stop-color="#c0b12a"/><stop offset="0.86" stop-color="#c4bb2f"/><stop offset="0.88" stop-color="#c2b62d"/><stop offset="0.91" stop-color="#bda727"/><stop offset="0.94" stop-color="#b48e1c"/><stop offset="0.97" stop-color="#a86c0e"/><stop offset="1" stop-color="#9c4b00"/></linearGradient><linearGradient id="linear-gradient-3" x1="-30.83" y1="75.24" x2="88.46" y2="194.53" gradientTransform="translate(9.47 -27.73) rotate(-0.43)" xlink:href="#linear-gradient"/><linearGradient id="linear-gradient-4" x1="-38.3" y1="82.7" x2="81" y2="201.99" gradientTransform="translate(9.47 -27.73) rotate(-0.43)" xlink:href="#linear-gradient"/><linearGradient id="linear-gradient-5" x1="-41.29" y1="85.69" x2="78" y2="204.98" gradientTransform="translate(9.47 -27.73) rotate(-0.43)" xlink:href="#linear-gradient"/><linearGradient id="linear-gradient-6" x1="-19.71" y1="64.12" x2="99.57" y2="183.41" gradientTransform="translate(9.47 -27.73) rotate(-0.43)" xlink:href="#linear-gradient"/><linearGradient id="linear-gradient-7" x1="42.84" y1="1.56" x2="162.14" y2="120.86" gradientTransform="translate(9.47 -27.73) rotate(-0.43)" xlink:href="#linear-gradient"/><linearGradient id="linear-gradient-8" x1="47.03" y1="-2.62" x2="166.32" y2="116.68" gradientTransform="translate(9.47 -27.73) rotate(-0.43)" xlink:href="#linear-gradient"/><linearGradient id="linear-gradient-9" x1="22.45" y1="21.95" x2="141.75" y2="141.26" gradientTransform="translate(9.47 -27.73) rotate(-0.43)" xlink:href="#linear-gradient"/><linearGradient id="linear-gradient-10" x1="8.46" y1="35.94" x2="127.78" y2="155.26" gradientTransform="translate(9.47 -27.73) rotate(-0.43)" xlink:href="#linear-gradient"/><linearGradient id="linear-gradient-11" x1="-6.12" y1="50.53" x2="113.16" y2="169.81" gradientTransform="translate(9.47 -27.73) rotate(-0.43)" xlink:href="#linear-gradient"/><linearGradient id="linear-gradient-12" x1="-39.46" y1="83.86" x2="79.83" y2="203.16" gradientTransform="translate(9.47 -27.73) rotate(-0.43)" xlink:href="#linear-gradient"/><linearGradient id="linear-gradient-13" x1="46.45" y1="-2.05" x2="165.75" y2="117.25" gradientTransform="translate(9.47 -27.73) rotate(-0.43)" xlink:href="#linear-gradient"/><linearGradient id="linear-gradient-14" x1="41.19" y1="3.22" x2="160.48" y2="122.52" gradientTransform="translate(9.47 -27.73) rotate(-0.43)" xlink:href="#linear-gradient"/><linearGradient id="linear-gradient-15" x1="19.17" y1="25.25" x2="138.45" y2="144.54" gradientTransform="translate(9.47 -27.73) rotate(-0.43)" xlink:href="#linear-gradient"/><linearGradient id="linear-gradient-16" x1="31.74" y1="12.68" x2="151.03" y2="131.97" gradientTransform="translate(9.47 -27.73) rotate(-0.43)" xlink:href="#linear-gradient"/><linearGradient id="linear-gradient-17" x1="-22.72" y1="67.11" x2="96.58" y2="186.41" gradientTransform="translate(9.47 -27.73) rotate(-0.43)" xlink:href="#linear-gradient"/><linearGradient id="linear-gradient-18" x1="34.33" y1="10.07" x2="153.63" y2="129.37" gradientTransform="translate(9.47 -27.73) rotate(-0.43)" xlink:href="#linear-gradient"/><linearGradient id="linear-gradient-19" x1="-33.04" y1="77.44" x2="86.26" y2="196.74" gradientTransform="translate(9.47 -27.73) rotate(-0.43)" xlink:href="#linear-gradient"/><linearGradient id="linear-gradient-20" x1="4.9" y1="39.55" x2="124.16" y2="158.82" gradientTransform="translate(9.47 -27.73) rotate(-0.43)" xlink:href="#linear-gradient"/><linearGradient id="linear-gradient-21" x1="-9.62" y1="54" x2="109.69" y2="173.31" gradientTransform="translate(9.47 -27.73) rotate(-0.43)" xlink:href="#linear-gradient"/><linearGradient id="linear-gradient-22" x1="413.12" y1="-63.21" x2="253.61" y2="96.3" xlink:href="#linear-gradient-2"/></defs><g id="Capa_2" data-name="Capa 2"><g id="Layer_1" data-name="Layer 1"><circle class="cls-1" cx="67.06" cy="67.06" r="67.06" transform="translate(-27.78 67.06) rotate(-45)"/><path class="cls-2" d="M56,125.51a59.49,59.49,0,1,1,70.6-58.89h0A59.51,59.51,0,0,1,56,125.51ZM77.71,11.57a57.28,57.28,0,0,0-11.07-1A56.49,56.49,0,0,0,27.42,107.3a56.49,56.49,0,0,0,79.29-80.48A56.13,56.13,0,0,0,77.71,11.57Z"/><path class="cls-3" d="M4.14,67.16h0a.46.46,0,0,0-.44.45A64.69,64.69,0,0,0,4.64,78a.45.45,0,0,0,.44.37h.08a.44.44,0,0,0,.36-.51A63,63,0,0,1,4.59,67.6.45.45,0,0,0,4.14,67.16Z"/><path class="cls-4" d="M8.13,87.86a.44.44,0,0,0-.84.29,63.24,63.24,0,0,0,4.29,9.54.43.43,0,0,0,.39.23.42.42,0,0,0,.21-.06.44.44,0,0,0,.18-.6A61.42,61.42,0,0,1,8.13,87.86Z"/><path class="cls-5" d="M18.07,105.84a.44.44,0,1,0-.69.55A63.79,63.79,0,0,0,24.53,114a.44.44,0,0,0,.63,0,.45.45,0,0,0,0-.63A62.87,62.87,0,0,1,18.07,105.84Z"/><path class="cls-6" d="M4.83,57.68h.08a.44.44,0,0,0,.43-.38,61.78,61.78,0,0,1,2.44-10A.44.44,0,1,0,6.94,47,63.13,63.13,0,0,0,4.46,57.18.44.44,0,0,0,4.83,57.68Z"/><path class="cls-7" d="M81.84,6.34A62.46,62.46,0,0,1,91.63,9.6a.39.39,0,0,0,.18,0,.43.43,0,0,0,.4-.27A.44.44,0,0,0,92,8.79a62.54,62.54,0,0,0-9.93-3.31.45.45,0,0,0-.54.33A.44.44,0,0,0,81.84,6.34Z"/><path class="cls-8" d="M100.75,14.44a62.91,62.91,0,0,1,8.19,6.26.47.47,0,0,0,.31.12.42.42,0,0,0,.32-.15.44.44,0,0,0,0-.63,64.75,64.75,0,0,0-8.31-6.35.46.46,0,0,0-.62.13A.45.45,0,0,0,100.75,14.44Z"/><path class="cls-9" d="M41.27,10.1a.35.35,0,0,0,.17,0,62.45,62.45,0,0,1,9.73-3.43.46.46,0,0,0,.32-.55.45.45,0,0,0-.55-.31,63.1,63.1,0,0,0-9.86,3.48.45.45,0,0,0-.22.59A.43.43,0,0,0,41.27,10.1Z"/><path class="cls-10" d="M24,21.59a.42.42,0,0,0,.3-.12,63.88,63.88,0,0,1,8.08-6.41.45.45,0,0,0,.13-.62.46.46,0,0,0-.62-.12,62.57,62.57,0,0,0-8.19,6.51.43.43,0,0,0,0,.62A.4.4,0,0,0,24,21.59Z"/><path class="cls-11" d="M11.25,38a.38.38,0,0,0,.21,0,.45.45,0,0,0,.39-.23,61.93,61.93,0,0,1,5.57-8.69.44.44,0,1,0-.7-.54,63.74,63.74,0,0,0-5.66,8.81A.44.44,0,0,0,11.25,38Z"/><path class="cls-12" d="M42.43,124.5a62.59,62.59,0,0,1-9.11-4.85.46.46,0,0,0-.62.13.45.45,0,0,0,.14.62,63.35,63.35,0,0,0,9.24,4.91.39.39,0,0,0,.18,0,.43.43,0,0,0,.4-.27A.44.44,0,0,0,42.43,124.5Z"/><path class="cls-13" d="M122.13,37a.42.42,0,0,0,.21-.06.44.44,0,0,0,.17-.6,64,64,0,0,0-5.81-8.7.44.44,0,0,0-.62-.07.44.44,0,0,0-.08.62,63.83,63.83,0,0,1,5.74,8.58A.43.43,0,0,0,122.13,37Z"/><path class="cls-14" d="M129,56.54h.08a.46.46,0,0,0,.36-.52,63.34,63.34,0,0,0-2.66-10.12.45.45,0,0,0-.84.3,61.32,61.32,0,0,1,2.62,10A.45.45,0,0,0,129,56.54Z"/><path class="cls-15" d="M126.89,86.62a.46.46,0,0,0-.57.28,62.51,62.51,0,0,1-4.07,9.48.43.43,0,0,0,.18.6.42.42,0,0,0,.21.06.44.44,0,0,0,.39-.24,63.71,63.71,0,0,0,4.14-9.61A.46.46,0,0,0,126.89,86.62Z"/><path class="cls-16" d="M130.42,66.44A.44.44,0,0,0,130,66a.43.43,0,0,0-.44.45v.15a62.87,62.87,0,0,1-.77,10.28.44.44,0,0,0,.37.51h.08a.44.44,0,0,0,.43-.38,64.71,64.71,0,0,0,.78-10.43Z"/><path class="cls-17" d="M82.89,127.52a63.45,63.45,0,0,1-10.17,1.77.44.44,0,0,0-.4.48.45.45,0,0,0,.45.4h0a63.89,63.89,0,0,0,10.31-1.79.45.45,0,0,0,.32-.54A.45.45,0,0,0,82.89,127.52Z"/><path class="cls-18" d="M72.12,4.34a.44.44,0,0,0-.41-.47A65.23,65.23,0,0,0,61.25,4a.43.43,0,0,0-.4.48.44.44,0,0,0,.44.41h0a63.49,63.49,0,0,1,10.32-.1A.45.45,0,0,0,72.12,4.34Z"/><path class="cls-19" d="M62.41,129.37a62.3,62.3,0,0,1-10.19-1.6.44.44,0,0,0-.54.32.45.45,0,0,0,.33.54,62.93,62.93,0,0,0,10.33,1.62h0a.45.45,0,0,0,0-.89Z"/><path class="cls-20" d="M116.66,105.06a62.72,62.72,0,0,1-6.93,7.64.44.44,0,0,0,0,.63.47.47,0,0,0,.33.14.46.46,0,0,0,.3-.12,63.63,63.63,0,0,0,7-7.75.44.44,0,0,0-.08-.62A.44.44,0,0,0,116.66,105.06Z"/><path class="cls-21" d="M101.64,119.11a62.92,62.92,0,0,1-9,5,.45.45,0,0,0-.23.59.46.46,0,0,0,.41.26.39.39,0,0,0,.18,0,63.21,63.21,0,0,0,9.15-5.05.44.44,0,1,0-.49-.74Z"/><path class="cls-22" d="M88.11,64.23a19.11,19.11,0,0,0-13.7-29.95l-.07-9.68-8.66.06.08,9.57-5.9,0-.07-9.56-8.65.06.07,9.57-14.75.11.08,10.82,10.3-.08.33,44-10.3.08L37,100.13,51.7,100l.07,9.57,8.65-.07L60.35,100l5.9,0,.07,9.56,8.65-.07-.07-9.56,3.64,0a19.12,19.12,0,0,0,9.57-35.59ZM72.36,45a8.31,8.31,0,1,1,.12,16.61l-14.7.11-.12-16.61Zm6.1,44L58,89.15l-.13-16.61,14.71-.11,5.77,0A8.31,8.31,0,0,1,78.46,89Z"/></g></g></svg>